<svg xmlns="http://www.w3.org/2000/svg" viewBox="0 0 64 64" width="128" height="128">
  <defs>
    <linearGradient id="tile" x1="0" y1="0" x2="0" y2="1">
      <stop offset="0" stop-color="#1f2937"/><stop offset="1" stop-color="#0b0f14"/>
    </linearGradient>
  </defs>
  <rect x="2" y="2" width="60" height="60" rx="15" fill="url(#tile)"/>
  <path d="M10 14 h44 a4 4 0 0 1 4 4 v24 a4 4 0 0 1 -4 4 h-26 l-10 8 v-8 h-8 a4 4 0 0 1 -4 -4 v-24 a4 4 0 0 1 4 -4 z" fill="#60a5fa"/>
  <circle cx="19" cy="28" r="2.8" fill="#0b0f14"/>
  <circle cx="27" cy="28" r="2.8" fill="#0b0f14"/>
  <circle cx="35" cy="28" r="2.8" fill="#0b0f14"/>
  <path d="M46 19 L47.8 23.2 L52 25 L47.8 26.8 L46 31 L44.2 26.8 L40 25 L44.2 23.2 Z" fill="#4ade80"/>
</svg>
